  0
SECTION
  2
HEADER
  9
$INSBASE
 10
0.0000
 20
0.0000
  9
$EXTMIN
 10
-48.382030
 20
-59.382030
  9
$EXTMAX
 10
48.382030
 20
48.382030
  9
$LIMMIN
 10
-48.382030
 20
-59.382030
  9
$LIMMAX
 10
48.382030
 20
48.382030
  9
$TEXTSTYLE
  7
STANDARD
  9
$CLAYER
  8
default
  0
ENDSEC
  0
SECTION
  2
TABLES
  0
TABLE
  2
LTYPE
 70
4948253
  0
LTYPE
  2
CONTINUOUS
 70
    64
  3
Solid line
 72
    65
 73
     0
 40
0.0
  0
ENDTAB
  0
TABLE
  2
LAYER
 70
     5
  0
LAYER
  2
default
 70
    64
 62
     7
  6
CONTINUOUS
  0
LAYER
  2
layer2
 70
    64
 62
     7
  6
CONTINUOUS
  0
ENDTAB
  0
TABLE
  2
STYLE
 70
     1
  0
STYLE
  2
STANDARD
 70
     0
 40
0.0
 41
1.0
 50
0.0
 71
     0
 42
0.2
  3
txt
  4

  0
ENDTAB
  0
TABLE
  2
VIEW
 70
     0
  0
ENDTAB
  0
ENDSEC
  0
SECTION
  2
BLOCKS
  0
ENDSEC
  0
SECTION
  2
ENTITIES
  0
LINE
  8
layer2
 10
-5.000000
 20
-40.000000
 30
0.0
 11
-5.000000
 21
-45.000000
 31
0.0
  0
LINE
  8
layer2
 10
-5.000000
 20
-45.000000
 30
0.0
 11
5.000000
 21
-45.000000
 31
0.0
  0
LINE
  8
layer2
 10
5.000000
 20
-45.000000
 30
0.0
 11
5.000000
 21
-40.000000
 31
0.0
  0
LINE
  8
layer2
 10
15.669873
 20
-37.141016
 30
0.0
 11
18.169873
 21
-41.471143
 31
0.0
  0
LINE
  8
layer2
 10
18.169873
 20
-41.471143
 30
0.0
 11
26.830127
 21
-36.471143
 31
0.0
  0
LINE
  8
layer2
 10
26.830127
 20
-36.471143
 30
0.0
 11
24.330127
 21
-32.141016
 31
0.0
  0
LINE
  8
layer2
 10
32.141016
 20
-24.330127
 30
0.0
 11
36.471143
 21
-26.830127
 31
0.0
  0
LINE
  8
layer2
 10
36.471143
 20
-26.830127
 30
0.0
 11
41.471143
 21
-18.169873
 31
0.0
  0
LINE
  8
layer2
 10
41.471143
 20
-18.169873
 30
0.0
 11
37.141016
 21
-15.669873
 31
0.0
  0
LINE
  8
layer2
 10
40.000000
 20
-5.000000
 30
0.0
 11
45.000000
 21
-5.000000
 31
0.0
  0
LINE
  8
layer2
 10
45.000000
 20
-5.000000
 30
0.0
 11
45.000000
 21
5.000000
 31
0.0
  0
LINE
  8
layer2
 10
45.000000
 20
5.000000
 30
0.0
 11
40.000000
 21
5.000000
 31
0.0
  0
LINE
  8
layer2
 10
37.141016
 20
15.669873
 30
0.0
 11
41.471143
 21
18.169873
 31
0.0
  0
LINE
  8
layer2
 10
41.471143
 20
18.169873
 30
0.0
 11
36.471143
 21
26.830127
 31
0.0
  0
LINE
  8
layer2
 10
36.471143
 20
26.830127
 30
0.0
 11
32.141016
 21
24.330127
 31
0.0
  0
LINE
  8
layer2
 10
24.330127
 20
32.141016
 30
0.0
 11
26.830127
 21
36.471143
 31
0.0
  0
LINE
  8
layer2
 10
26.830127
 20
36.471143
 30
0.0
 11
18.169873
 21
41.471143
 31
0.0
  0
LINE
  8
layer2
 10
18.169873
 20
41.471143
 30
0.0
 11
15.669873
 21
37.141016
 31
0.0
  0
LINE
  8
layer2
 10
5.000000
 20
40.000000
 30
0.0
 11
5.000000
 21
45.000000
 31
0.0
  0
LINE
  8
layer2
 10
5.000000
 20
45.000000
 30
0.0
 11
-5.000000
 21
45.000000
 31
0.0
  0
LINE
  8
layer2
 10
-5.000000
 20
45.000000
 30
0.0
 11
-5.000000
 21
40.000000
 31
0.0
  0
LINE
  8
layer2
 10
-15.669873
 20
37.141016
 30
0.0
 11
-18.169873
 21
41.471143
 31
0.0
  0
LINE
  8
layer2
 10
-18.169873
 20
41.471143
 30
0.0
 11
-26.830127
 21
36.471143
 31
0.0
  0
LINE
  8
layer2
 10
-26.830127
 20
36.471143
 30
0.0
 11
-24.330127
 21
32.141016
 31
0.0
  0
LINE
  8
layer2
 10
-32.141016
 20
24.330127
 30
0.0
 11
-36.471143
 21
26.830127
 31
0.0
  0
LINE
  8
layer2
 10
-36.471143
 20
26.830127
 30
0.0
 11
-41.471143
 21
18.169873
 31
0.0
  0
LINE
  8
layer2
 10
-41.471143
 20
18.169873
 30
0.0
 11
-37.141016
 21
15.669873
 31
0.0
  0
LINE
  8
layer2
 10
-40.000000
 20
5.000000
 30
0.0
 11
-45.000000
 21
5.000000
 31
0.0
  0
LINE
  8
layer2
 10
-45.000000
 20
5.000000
 30
0.0
 11
-45.000000
 21
-5.000000
 31
0.0
  0
LINE
  8
layer2
 10
-45.000000
 20
-5.000000
 30
0.0
 11
-40.000000
 21
-5.000000
 31
0.0
  0
LINE
  8
layer2
 10
-37.141016
 20
-15.669873
 30
0.0
 11
-41.471143
 21
-18.169873
 31
0.0
  0
LINE
  8
layer2
 10
-41.471143
 20
-18.169873
 30
0.0
 11
-36.471143
 21
-26.830127
 31
0.0
  0
LINE
  8
layer2
 10
-36.471143
 20
-26.830127
 30
0.0
 11
-32.141016
 21
-24.330127
 31
0.0
  0
LINE
  8
layer2
 10
-24.330127
 20
-32.141016
 30
0.0
 11
-26.830127
 21
-36.471143
 31
0.0
  0
LINE
  8
layer2
 10
-26.830127
 20
-36.471143
 30
0.0
 11
-18.169873
 21
-41.471143
 31
0.0
  0
LINE
  8
layer2
 10
-18.169873
 20
-41.471143
 30
0.0
 11
-15.669873
 21
-37.141016
 31
0.0
  0
LINE
  8
layer2
 10
5.000000
 20
-40.000000
 30
0.0
 11
15.669873
 21
-37.141016
 31
0.0
  0
LINE
  8
layer2
 10
24.330127
 20
-32.141016
 30
0.0
 11
32.141016
 21
-24.330127
 31
0.0
  0
LINE
  8
layer2
 10
37.141016
 20
-15.669873
 30
0.0
 11
40.000000
 21
-5.000000
 31
0.0
  0
LINE
  8
layer2
 10
40.000000
 20
5.000000
 30
0.0
 11
37.141016
 21
15.669873
 31
0.0
  0
LINE
  8
layer2
 10
32.141016
 20
24.330127
 30
0.0
 11
24.330127
 21
32.141016
 31
0.0
  0
LINE
  8
layer2
 10
15.669873
 20
37.141016
 30
0.0
 11
5.000000
 21
40.000000
 31
0.0
  0
LINE
  8
layer2
 10
-5.000000
 20
40.000000
 30
0.0
 11
-15.669873
 21
37.141016
 31
0.0
  0
LINE
  8
layer2
 10
-24.330127
 20
32.141016
 30
0.0
 11
-32.141016
 21
24.330127
 31
0.0
  0
LINE
  8
layer2
 10
-37.141016
 20
15.669873
 30
0.0
 11
-40.000000
 21
5.000000
 31
0.0
  0
LINE
  8
layer2
 10
-40.000000
 20
-5.000000
 30
0.0
 11
-37.141016
 21
-15.669873
 31
0.0
  0
LINE
  8
layer2
 10
-32.141016
 20
-24.330127
 30
0.0
 11
-24.330127
 21
-32.141016
 31
0.0
  0
LINE
  8
layer2
 10
-15.669873
 20
-37.141016
 30
0.0
 11
-5.000000
 21
-40.000000
 31
0.0
  0
LINE
  8
default
 10
-5.000000
 20
-46.000000
 30
0.0
 11
5.000000
 21
-46.000000
 31
0.0
  0
LINE
  8
default
 10
5.000000
 20
-46.000000
 30
0.0
 11
5.000000
 21
-56.000000
 31
0.0
  0
LINE
  8
default
 10
5.000000
 20
-56.000000
 30
0.0
 11
-5.000000
 21
-56.000000
 31
0.0
  0
LINE
  8
default
 10
-5.000000
 20
-56.000000
 30
0.0
 11
-5.000000
 21
-46.000000
 31
0.0
  0
ARC
  8
layer2
 10
0.000000
 20
0.000000
 30
0.000000
 40
30.000000
 50
0.000000
 51
180.000000
  0
ARC
  8
layer2
 10
0.000000
 20
0.000000
 30
0.000000
 40
30.000000
 50
180.000000
 51
0.000000
  0
ENDSEC
  0
EOF
